<?xml version="1.0" encoding="UTF-8"?>
<svg viewBox="0 0 100 100" xmlns="http://www.w3.org/2000/svg">
    <defs>
        <pattern id="y-str-2-final" width="12" height="12" patternUnits="userSpaceOnUse"
            patternTransform="rotate(45)">
            <rect width="12" height="12" fill="#FFF200" />
            <rect width="6" height="12" fill="#FFFF66" />
        </pattern>
    </defs>
    <path fill="#C0C0C0" d="M 15,0 A 85,85 0 0,0 100,85 L 100,75 A 75,75 0 0,1 25,0 Z" />
    <path fill="url(#y-str-2-final)" d="M 25,0 A 75,75 0 0,0 100,75 L 100,25 A 25,25 0 0,1 75,0 Z" />
    <path fill="#C0C0C0" d="M 75,0 A 25,25 0 0,0 100,25 L 100,15 A 15,15 0 0,1 85,0 Z" />
    <g transform="translate(62, 30) rotate(49)">
        <polygon fill="#666666" points="-10,0 10,-8 10,8" />
        <rect fill="#A4C400" x="13" y="-3" width="6" height="6" />
    </g>
</svg>
